<?xml version="1.0" encoding="UTF-8"?>
<svg version="1.1" xmlns="http://www.w3.org/2000/svg" width="512" height="512">
<path d="M0 0 C31.56792053 -0.06846934 63.13581988 -0.12154531 94.70379734 -0.15319599 C98.43249587 -0.15694801 102.16119426 -0.16083099 105.88989258 -0.16479492 C106.63219486 -0.16558185 107.37449715 -0.16636878 108.13929344 -0.16717956 C120.15127569 -0.18022587 132.16321477 -0.20387543 144.17517143 -0.23145839 C156.5047775 -0.25953418 168.83436099 -0.27618085 181.16399771 -0.28226548 C188.76922386 -0.28637742 196.37432799 -0.29935463 203.97951657 -0.3237494 C209.81571303 -0.34151383 215.65184719 -0.34336013 221.48807144 -0.33932304 C223.87894631 -0.34014778 226.26982583 -0.34610719 228.66067314 -0.35761642 C231.92885312 -0.37257617 235.19651404 -0.36894053 238.46470642 -0.36076355 C239.40733697 -0.36950207 240.34996753 -0.3782406 241.32116264 -0.38724393 C248.81126314 -0.33670714 255.01569852 1.02923487 261.3125 5.1875 C267.48951392 11.65181689 268.58726966 17.7998467 268.48101807 26.52893066 C268.48443577 27.56482126 268.48785347 28.60071185 268.49137473 29.66799307 C268.49794346 33.12595215 268.4759933 36.5831285 268.45410156 40.04101562 C268.45297287 42.5249225 268.45360737 45.00883071 268.45587158 47.49273682 C268.45678134 52.83366386 268.44546405 58.17434903 268.42292023 63.51521301 C268.39034753 71.23706673 268.37998785 78.95882604 268.37496826 86.68074101 C268.36622384 99.21039146 268.33963151 111.73993747 268.30175781 124.26953125 C268.26501558 136.4374947 268.23671467 148.60542974 268.21972656 160.7734375 C268.21867567 161.5240586 268.21762477 162.2746797 268.21654204 163.04804689 C268.21132171 166.81386759 268.20626692 170.57968849 268.20129442 174.34550953 C268.15985897 205.56374895 268.08913556 236.78185858 268 268 C265.43673991 267.85201669 262.87374361 267.70075227 260.31079102 267.54760742 C259.58933144 267.50629448 258.86787186 267.46498154 258.12454987 267.42241669 C252.939137 267.10900397 247.98441617 266.52112289 242.9375 265.3125 C242.19274414 265.13879883 241.44798828 264.96509766 240.68066406 264.78613281 C223.6183039 260.59499539 208.26309387 252.47852476 195 241 C194.20335937 240.35933594 193.40671875 239.71867188 192.5859375 239.05859375 C177.2252153 226.20922772 166.40628179 207.8682022 160.5625 188.875 C160.32740723 188.1128418 160.09231445 187.35068359 159.85009766 186.56542969 C155.28346838 170.45866757 155.75300033 154.13949236 155.875 137.5625 C155.88505209 135.17383189 155.89417399 132.78515967 155.90234375 130.39648438 C155.92417539 124.59756533 155.95747555 118.79880232 156 113 C154.06688965 113.01571045 154.06688965 113.01571045 152.09472656 113.03173828 C147.21161797 113.06854621 142.32852099 113.09111632 137.4453125 113.10986328 C135.35089034 113.1197849 133.25648149 113.13332645 131.16210938 113.15087891 C92.96369612 113.46247825 59.13376717 106.93319549 30.8125 79.25 C13.03511125 61.18279402 -0.214162 34.89998573 -0.08789062 9.140625 C-0.07951172 8.47546875 -0.07113281 7.8103125 -0.0625 7.125 C-0.05798828 6.43664062 -0.05347656 5.74828125 -0.04882812 5.0390625 C-0.03716336 3.35933665 -0.01923271 1.67965625 0 0 Z " fill="#1D78F3" transform="translate(122,122)"/>
<path d="M0 0 C31.67828364 -0.09130855 63.35652974 -0.16206868 95.03491428 -0.20426132 C98.77734541 -0.20926397 102.51977629 -0.21444127 106.26220703 -0.21972656 C107.37975291 -0.22130043 107.37975291 -0.22130043 108.51987548 -0.22290608 C120.5732323 -0.24029729 132.62651258 -0.27182787 144.67982404 -0.30861118 C157.05350334 -0.3460564 169.42714263 -0.36824341 181.80087626 -0.37635398 C189.43224369 -0.38183435 197.06339474 -0.39912498 204.69469555 -0.43166587 C210.55267145 -0.45536815 216.41053713 -0.45781081 222.26856232 -0.45243073 C224.66708582 -0.4535296 227.06561766 -0.46146523 229.46409225 -0.4768219 C232.74518911 -0.49679622 236.02536886 -0.49191133 239.30648804 -0.48101807 C240.72190103 -0.49849512 240.72190103 -0.49849512 242.16590822 -0.51632524 C249.30389954 -0.45250514 256.47782332 0.83961245 261.95041597 5.75007415 C267.74499988 12.06010993 268.29066832 17.84680809 268.24050903 26.13020325 C268.24307231 27.6740689 268.24307231 27.6740689 268.24568737 29.24912375 C268.24898498 32.70236723 268.23797392 36.15541696 268.22705078 39.60864258 C268.22648673 42.082255 268.22680311 44.55586775 268.22793579 47.02947998 C268.22839142 52.3572877 268.22271384 57.68503495 268.21146011 63.01282692 C268.19519977 70.71589128 268.18999656 78.41893196 268.18748413 86.12201162 C268.18310787 98.62001012 268.16980063 111.11798249 268.15087891 123.6159668 C268.13251833 135.75593943 268.11836269 147.89590496 268.10986328 160.03588867 C268.10933783 160.78431094 268.10881239 161.53273322 268.10827102 162.30383495 C268.10566093 166.05848362 268.10313351 169.81313234 268.10064721 173.56778109 C268.07991685 204.71187305 268.04454442 235.85593256 268 267 C265.5878731 267.01300518 263.17581695 267.02252078 260.76367188 267.0300293 C260.0835907 267.0340551 259.40350952 267.0380809 258.70281982 267.0422287 C231.25322764 267.10631943 206.13350183 252.40940481 186.875 233.921875 C165.09052239 212.22476829 155.79094277 182.57635007 155.70703125 152.4296875 C155.71589067 147.57771731 155.76154099 142.72668272 155.8125 137.875 C155.82758405 135.35547681 155.84126583 132.83594482 155.85351562 130.31640625 C155.88620284 124.21074187 155.93610311 118.10541347 156 112 C155.29637329 112.00666183 154.59274658 112.01332367 153.86779785 112.02018738 C147.16226399 112.0808711 140.45680929 112.12626041 133.75106049 112.15543652 C130.30543589 112.17094162 126.86004242 112.19189342 123.41455078 112.22631836 C87.21744742 112.57809956 57.22018584 105.02630825 30.8125 79.25 C16.62697286 64.83559946 6.8006472 46.65347832 2 27 C1.77699219 26.11699219 1.55398437 25.23398437 1.32421875 24.32421875 C0.10556772 18.72837218 -0.09691918 13.34218924 -0.046875 7.64453125 C-0.04349121 6.90706665 -0.04010742 6.16960205 -0.03662109 5.40979004 C-0.02785665 3.60650667 -0.01440783 1.80324711 0 0 Z " fill="#1B76F1" transform="translate(0,245)"/>
<path d="M0 0 C32.22189224 -0.11409125 64.44372696 -0.20256288 96.66577402 -0.25532665 C100.47086791 -0.26158009 104.2759614 -0.26805171 108.08105469 -0.2746582 C108.83857236 -0.27596976 109.59609002 -0.27728131 110.37656277 -0.2786326 C122.63822125 -0.30038236 134.89976238 -0.33980148 147.16135126 -0.38576398 C159.74520066 -0.43254066 172.32898866 -0.46029794 184.91292143 -0.47044247 C192.67639564 -0.47729916 200.43953815 -0.49894601 208.20291024 -0.53958233 C214.15836218 -0.56916523 220.11364437 -0.57227106 226.06917191 -0.56553841 C228.51046922 -0.56691414 230.95177908 -0.57686231 233.39300156 -0.59602737 C236.72750942 -0.62092157 240.06060064 -0.61491701 243.3951416 -0.60127258 C244.36013974 -0.61583679 245.32513787 -0.630401 246.31937838 -0.64540654 C252.76870568 -0.57412438 256.99301032 0.88372527 262 5 C265.82366365 9.12553183 268.25173465 12.74800563 268.24609566 18.44338608 C268.25007775 19.33264935 268.25405985 20.22191263 268.25816262 21.13812327 C268.25233693 22.11088183 268.24651125 23.08364038 268.24050903 24.08587646 C268.24307231 25.64071113 268.24307231 25.64071113 268.24568737 27.22695661 C268.24898967 30.71094436 268.23796625 34.19474083 268.22705078 37.67871094 C268.22648683 40.17188004 268.22680292 42.66504947 268.22793579 45.15821838 C268.22839168 50.53133366 268.22270757 55.90438904 268.21146011 61.27748871 C268.19520876 69.04608723 268.18999748 76.81466226 268.18748413 84.58327594 C268.18310645 97.18720378 268.16979538 109.79110574 268.15087891 122.39501953 C268.13252199 134.63883332 268.11836456 146.88264008 268.10986328 159.12646484 C268.10933783 159.88112383 268.10881239 160.63578282 268.10827102 161.41331026 C268.10566095 165.1991977 268.10313353 168.9850852 268.10064721 172.77097273 C268.07991245 204.18066731 268.04453631 235.59032972 268 267 C265.26755152 266.85216384 262.53536712 266.70087934 259.80322266 266.54760742 C258.64796837 266.48563801 258.64796837 266.48563801 257.46937561 266.42241669 C229.7028226 264.84581835 204.20551562 250.6285446 185 231 C164.7880857 208.2849466 155.75336562 180.16498561 155.90234375 150.0859375 C155.90446617 148.44245834 155.90446617 148.44245834 155.90663147 146.76577759 C155.91218229 143.30215605 155.92472541 139.83860166 155.9375 136.375 C155.94252136 134.01171969 155.94708315 131.64843836 155.95117188 129.28515625 C155.96213556 123.52341499 155.97882394 117.7617123 156 112 C155.41134659 112.00444122 154.82269318 112.00888245 154.21620178 112.01345825 C148.00133736 112.05825155 141.78651993 112.0880945 135.5715332 112.10986328 C133.26259494 112.11982322 130.95366895 112.13339603 128.64477539 112.15087891 C110.14888014 112.28726156 92.71617285 111.95396643 75 106 C73.93394531 105.65195313 72.86789062 105.30390625 71.76953125 104.9453125 C43.50726261 94.96229435 21.70439061 72.57076739 8.86376953 45.90283203 C3.24432917 33.5235448 -0.09550927 19.83020842 -0.0300293 6.23486328 C-0.02569382 5.0665799 -0.02135834 3.89829651 -0.01689148 2.6946106 C-0.0085302 1.36077835 -0.0085302 1.36077835 0 0 Z " fill="#2584FF" transform="translate(244,0)"/>
</svg>
