<?xml version="1.0" encoding="UTF-8"?>
<svg version="1.1" xmlns="http://www.w3.org/2000/svg" width="512" height="512">
<path d="M0 0 C1.29235062 -0.0071553 2.58470123 -0.01431061 3.91621399 -0.02168274 C5.34664893 -0.02452288 6.77708413 -0.02723463 8.20751953 -0.02983093 C9.71571508 -0.0360984 11.2239091 -0.04274546 12.73210144 -0.04974365 C17.68483409 -0.07076092 22.63756694 -0.08114706 27.59033203 -0.09111023 C29.29881811 -0.09515931 31.00730404 -0.09927628 32.71578979 -0.10346031 C40.74726279 -0.12251054 48.77872662 -0.1367393 56.81021786 -0.14507228 C66.06120889 -0.15483034 75.31195974 -0.18111303 84.56286621 -0.22157317 C91.72486058 -0.25181455 98.88678644 -0.26654892 106.04884338 -0.26985329 C110.32049221 -0.27219555 114.59188441 -0.28104715 118.86346436 -0.30631447 C122.88876352 -0.3297397 126.91363976 -0.33377103 130.93898964 -0.32355309 C132.4078443 -0.32306103 133.87672081 -0.32928294 135.34551048 -0.34310913 C152.06480607 -0.49154982 165.2320887 4.31026514 177.42626953 15.76826477 C189.09713975 27.89720668 192.31746612 42.42921646 192.05126953 58.65888977 C191.43442757 73.42996069 184.42216673 84.87209854 173.96533203 94.95967102 C160.14179453 106.84493131 144.60525149 108.29878203 127.14013672 108.29243469 C125.79046029 108.2954326 124.44078471 108.29883657 123.09111023 108.3026123 C119.44831986 108.31139276 115.80555303 108.31378791 112.16275311 108.31442809 C109.87994586 108.31514204 107.59714447 108.31728287 105.31433868 108.31992531 C97.33064905 108.3291594 89.34697604 108.33326267 81.36328125 108.33247375 C73.95327597 108.33187365 66.54334365 108.34241721 59.13335681 108.35821742 C52.74491117 108.37134784 46.35648922 108.37665535 39.96803021 108.37601835 C36.16431687 108.37576495 32.36066844 108.37852768 28.55696869 108.3891964 C24.97490284 108.39897044 21.39296272 108.39889377 17.81089211 108.39167976 C15.89190171 108.39015742 13.97291107 108.39841534 12.05393982 108.40711975 C-6.6696115 108.34024849 -20.79787107 104.71285685 -34.76904297 91.86201477 C-45.89450023 80.38188689 -49.69167131 66.70362062 -49.65258789 51.14033508 C-49.51907118 43.87854479 -48.43219355 37.75283326 -45.28466797 31.14717102 C-44.93404297 30.36599915 -44.58341797 29.58482727 -44.22216797 28.77998352 C-37.06594038 14.41783232 -24.9384488 6.47003497 -10.28466797 1.14717102 C-6.8232664 0.07111703 -3.61632832 0.01375244 0 0 Z " fill="#FDCB01" transform="translate(320.28466796875,270.8528289794922)"/>
<path d="M0 0 C12.38112801 8.43079573 21.8630477 20.349727 24.953125 35.23828125 C25.99702173 42.78283612 26.10115421 50.20390788 26.09838867 57.81347656 C26.10138658 59.16315299 26.10479055 60.51282857 26.10856628 61.86250305 C26.11734674 65.50529342 26.11974189 69.14806025 26.12038207 72.79086018 C26.12109602 75.07366743 26.12323685 77.35646881 26.12587929 79.6392746 C26.13511338 87.62296423 26.13921665 95.60663724 26.13842773 103.59033203 C26.13782763 111.00033731 26.14837119 118.41026964 26.1641714 125.82025647 C26.17730182 132.20870211 26.18260933 138.59712406 26.18197232 144.98558307 C26.18171893 148.78929641 26.18448166 152.59294485 26.19515038 156.39664459 C26.20492442 159.97871044 26.20484775 163.56065056 26.19763374 167.14272118 C26.1961114 169.06171157 26.20436932 170.98070221 26.21307373 172.89967346 C26.14655357 191.5249198 22.61554681 206.00092493 9.5625 219.7578125 C-1.10878152 229.87539545 -13.74346423 234.84827669 -28.421875 234.67578125 C-29.340896 234.66748291 -30.25991699 234.65918457 -31.20678711 234.65063477 C-44.90750828 234.31080754 -57.38944498 228.86694638 -67.421875 219.42578125 C-76.03846093 210.14775615 -82.14558701 197.69634549 -82.19404602 184.95361328 C-82.20120132 183.66126266 -82.20835663 182.36891205 -82.21572876 181.03739929 C-82.2185689 179.60696435 -82.22128065 178.17652915 -82.22387695 176.74609375 C-82.23014442 175.2378982 -82.23679148 173.72970418 -82.24378967 172.22151184 C-82.26480694 167.2687792 -82.27519308 162.31604634 -82.28515625 157.36328125 C-82.28920533 155.65479517 -82.2933223 153.94630924 -82.29750633 152.23782349 C-82.31655656 144.2063505 -82.33078532 136.17488666 -82.3391183 128.14339542 C-82.34887636 118.89240439 -82.37515905 109.64165354 -82.41561919 100.39074707 C-82.44586057 93.2287527 -82.46059494 86.06682684 -82.46389931 78.9047699 C-82.46624157 74.63312108 -82.47509317 70.36172887 -82.50036049 66.09014893 C-82.52378572 62.06484976 -82.52781705 58.03997352 -82.51759911 54.01462364 C-82.51710705 52.54576898 -82.52332896 51.07689247 -82.53715515 49.6081028 C-82.68559584 32.88880721 -77.88378088 19.72152458 -66.42578125 7.52734375 C-48.8867849 -9.34926029 -20.87840372 -12.0720001 0 0 Z " fill="#0CC46D" transform="translate(353.046875,6.76171875)"/>
<path d="M0 0 C1.17175781 0.5259375 1.17175781 0.5259375 2.3671875 1.0625 C16.7293387 8.21872759 24.67713605 20.34621917 30 35 C31.07605399 38.46140157 31.13341858 41.66833965 31.14717102 45.28466797 C31.15432632 46.57701859 31.16148163 47.8693692 31.16885376 49.20088196 C31.1716939 50.6313169 31.17440565 52.0617521 31.17700195 53.4921875 C31.18326942 55.00038305 31.18991648 56.50857707 31.19691467 58.01676941 C31.21793194 62.96950205 31.22831808 67.92223491 31.23828125 72.875 C31.24233033 74.58348608 31.2464473 76.29197201 31.25063133 78.00045776 C31.26968156 86.03193075 31.28391032 94.06339459 31.2922433 102.09488583 C31.30200136 111.34587686 31.32828405 120.59662771 31.36874419 129.84753418 C31.39898557 137.00952855 31.41371994 144.17145441 31.41702431 151.33351135 C31.41936657 155.60516017 31.42821817 159.87655238 31.45348549 164.14813232 C31.47691072 168.17343149 31.48094205 172.19830773 31.47072411 176.22365761 C31.47023205 177.69251227 31.47645396 179.16138878 31.49028015 180.63017845 C31.6308682 196.46500894 27.23655353 210.63398555 16.1875 222.375 C2.63820849 234.95834973 -12.70117854 237.80985981 -30.47460938 237.18359375 C-35.74574788 236.80038647 -40.26412444 235.25659274 -45 233 C-45.78117187 232.649375 -46.56234375 232.29875 -47.3671875 231.9375 C-61.40219436 224.94427859 -69.96149203 213.04305077 -75.0546875 198.58984375 C-77.32011596 189.98683238 -77.14847455 181.25974631 -77.14526367 172.42480469 C-77.14826158 171.07512826 -77.15166555 169.72545268 -77.15544128 168.3757782 C-77.16422174 164.73298783 -77.16661689 161.090221 -77.16725707 157.44742107 C-77.16797102 155.16461382 -77.17011185 152.88181244 -77.17275429 150.59900665 C-77.18198838 142.61531702 -77.18609165 134.63164401 -77.18530273 126.64794922 C-77.18470263 119.23794394 -77.19524619 111.82801161 -77.2110464 104.41802478 C-77.22417682 98.02957914 -77.22948433 91.64115719 -77.22884732 85.25269818 C-77.22859393 81.44898484 -77.23135666 77.6453364 -77.24202538 73.84163666 C-77.25179942 70.25957081 -77.25172275 66.67763069 -77.24450874 63.09556007 C-77.2429864 61.17656968 -77.25124432 59.25757904 -77.25994873 57.33860779 C-77.19307747 38.61505647 -73.56568582 24.4867969 -60.71484375 10.515625 C-45.17890773 -4.54033901 -19.75937453 -9.41512517 0 0 Z " fill="#FF423F" transform="translate(210,275)"/>
<path d="M0 0 C1.34967643 -0.00299791 2.69935201 -0.00640188 4.04902649 -0.01017761 C7.69181686 -0.01895807 11.33458369 -0.02135321 14.97738361 -0.0219934 C17.26019086 -0.02270735 19.54299225 -0.02484818 21.82579803 -0.02749062 C29.80948767 -0.0367247 37.79316067 -0.04082798 45.77685547 -0.04003906 C53.18686075 -0.03943896 60.59679307 -0.04998251 68.00677991 -0.06578273 C74.39522555 -0.07891314 80.7836475 -0.08422065 87.1721065 -0.08358365 C90.97581985 -0.08333026 94.77946828 -0.08609299 98.58316803 -0.0967617 C102.16523388 -0.10653575 105.74717399 -0.10645908 109.32924461 -0.09924507 C111.24823501 -0.09772273 113.16722564 -0.10598065 115.0861969 -0.11468506 C133.71144323 -0.0481649 148.18744837 3.48284186 161.94433594 16.53588867 C172.06191889 27.20717019 177.03480012 39.8418529 176.86230469 54.52026367 C176.85400635 55.43928467 176.84570801 56.35830566 176.8371582 57.30517578 C176.49733098 71.00589695 171.05346982 83.48783365 161.61230469 93.52026367 C152.33427959 102.1368496 139.88286893 108.24397568 127.14013672 108.29243469 C125.8477861 108.29959 124.55543549 108.3067453 123.22392273 108.31411743 C121.79348779 108.31695758 120.36305259 108.31966932 118.93261719 108.32226562 C117.42442163 108.3285331 115.91622762 108.33518015 114.40803528 108.34217834 C109.45530263 108.36319561 104.50256978 108.37358175 99.54980469 108.38354492 C97.8413186 108.387594 96.13283268 108.39171097 94.42434692 108.395895 C86.39287393 108.41494523 78.3614101 108.42917399 70.32991886 108.43750697 C61.07892783 108.44726504 51.82817698 108.47354772 42.57727051 108.51400787 C35.41527614 108.54424924 28.25335027 108.55898361 21.09129333 108.56228799 C16.81964451 108.56463024 12.54825231 108.57348184 8.27667236 108.59874916 C4.2513732 108.62217439 0.22649696 108.62620572 -3.79885292 108.61598778 C-5.26770758 108.61549572 -6.73658409 108.62171764 -8.20537376 108.63554382 C-24.04020425 108.77613188 -38.20918086 104.3818172 -49.95019531 93.33276367 C-62.53354504 79.78347216 -65.38505512 64.44408513 -64.75878906 46.6706543 C-64.37558178 41.39951579 -62.83178805 36.88113923 -60.57519531 32.14526367 C-60.22457031 31.3640918 -59.87394531 30.58291992 -59.51269531 29.77807617 C-52.5194739 15.74306931 -40.61824609 7.18377165 -26.16503906 2.09057617 C-17.56202769 -0.17485228 -8.83494163 -0.00321088 0 0 Z " fill="#35C6FF" transform="translate(64.5751953125,132.854736328125)"/>
<path d="M0 0 C1.175625 0.5259375 1.175625 0.5259375 2.375 1.0625 C15.2907377 7.52036885 23.6414567 18.07818352 28.23828125 31.51953125 C29.58052562 35.89042958 30.1228951 39.53561288 30.11352539 44.14550781 C30.11341209 46.00698456 30.11341209 46.00698456 30.11329651 47.90606689 C30.10819031 49.25508667 30.10297432 50.60410604 30.09765625 51.953125 C30.09579024 53.33746286 30.0943672 54.72180138 30.09336853 56.10614014 C30.08955773 59.74261308 30.07973975 63.37904582 30.06866455 67.01550293 C30.0584195 70.72907976 30.05386429 74.4426631 30.04882812 78.15625 C30.03811616 85.43751829 30.02105704 92.7187535 30 100 C22.27120329 100.09335842 14.54254275 100.16409439 6.81332111 100.20724869 C3.22291729 100.22797799 -0.36709615 100.25602042 -3.95727539 100.30175781 C-7.43271947 100.3457481 -10.90779206 100.36924676 -14.38349342 100.37950897 C-16.3313639 100.39031783 -18.27908834 100.42145527 -20.22673035 100.45318604 C-35.42168642 100.45694808 -48.94110037 95.55622238 -60 85 C-71.407915 72.18110604 -75.02977641 57.88136629 -74.1953125 41.20947266 C-73.09084651 28.71520118 -66.22962926 16.08110956 -56.6640625 8.03515625 C-40.46672013 -4.42612291 -19.03264077 -8.82000426 0 0 Z " fill="#35C6FF" transform="translate(211,4)"/>
<path d="M0 0 C7.72879671 -0.09335842 15.45745725 -0.16409439 23.18667889 -0.20724869 C26.77708271 -0.22797799 30.36709615 -0.25602042 33.95727539 -0.30175781 C37.43271947 -0.3457481 40.90779206 -0.36924676 44.38349342 -0.37950897 C46.3313639 -0.39031783 48.27908834 -0.42145527 50.22673035 -0.45318604 C64.52559905 -0.45672622 77.65422327 3.81985351 88.5 13.40234375 C100.28360876 25.95311454 104.68816894 39.5889208 104.3125 56.44921875 C103.69994344 68.68758837 97.98661051 81.52248319 89 90 C75.08447204 101.70486717 60.84297833 105.38684026 43 104 C28.51824505 101.4261549 16.31913885 93.61285616 7.8125 81.75 C2.80862021 73.94983445 -0.13231997 65.10142455 -0.11352539 55.85449219 C-0.11344986 54.61350769 -0.11337433 53.37252319 -0.11329651 52.09393311 C-0.10819031 50.74491333 -0.10297432 49.39589396 -0.09765625 48.046875 C-0.09579024 46.66253714 -0.0943672 45.27819862 -0.09336853 43.89385986 C-0.08955773 40.25738692 -0.07973975 36.62095418 -0.06866455 32.98449707 C-0.0584195 29.27092024 -0.05386429 25.5573369 -0.04882812 21.84375 C-0.03811616 14.56248171 -0.02105704 7.2812465 0 0 Z " fill="#FDCB01" transform="translate(271,408)"/>
<path d="M0 0 C0.73943848 0.00563965 1.47887695 0.0112793 2.24072266 0.01708984 C15.22173863 0.30142786 27.40864044 4.58726395 37.06640625 13.50390625 C49.2027745 26.54135056 53.3024404 40.16835987 53.0234375 57.5078125 C52.55078222 69.5113848 46.60384754 81.50043357 38.375 90.1875 C28.99059806 98.7585871 17.44751298 104.45212909 4.60449219 104.42602539 C3.36350769 104.42594986 2.12252319 104.42587433 0.84393311 104.42579651 C-0.50508667 104.42069031 -1.85410604 104.41547432 -3.203125 104.41015625 C-4.58746286 104.40829024 -5.97180138 104.4068672 -7.35614014 104.40586853 C-10.99261308 104.40205773 -14.62904582 104.39223975 -18.26550293 104.38116455 C-21.97907976 104.3709195 -25.6926631 104.36636429 -29.40625 104.36132812 C-36.68751829 104.35061616 -43.9687535 104.33355704 -51.25 104.3125 C-51.34335842 96.58370329 -51.41409439 88.85504275 -51.45724869 81.12582111 C-51.47797799 77.53541729 -51.50602042 73.94540385 -51.55175781 70.35522461 C-51.5957481 66.87978053 -51.61924676 63.40470794 -51.62950897 59.92900658 C-51.64031783 57.9811361 -51.67145527 56.03341166 -51.70318604 54.08576965 C-51.70694808 38.89081358 -46.80622238 25.37139963 -36.25 14.3125 C-26.0509381 5.23605147 -13.63583817 -0.11034782 0 0 Z " fill="#0CC46D" transform="translate(459.25,136.6875)"/>
<path d="M0 0 C1.2409845 0.00007553 2.48196899 0.00015106 3.76055908 0.00022888 C5.10957886 0.00533508 6.45859823 0.01055107 7.80761719 0.01586914 C9.19195505 0.01773515 10.57629357 0.01915819 11.96063232 0.02015686 C15.59710526 0.02396766 19.23353801 0.03378564 22.86999512 0.04486084 C26.58357194 0.05510589 30.29715529 0.0596611 34.01074219 0.06469727 C41.29201047 0.07540923 48.57324569 0.09246835 55.85449219 0.11352539 C55.94785061 7.8423221 56.01858658 15.57098264 56.06174088 23.30020428 C56.08247018 26.8906081 56.11051261 30.48062154 56.15625 34.07080078 C56.20024028 37.54624486 56.22373895 41.02131745 56.23400116 44.49701881 C56.24481002 46.44488929 56.27594746 48.39261373 56.30767822 50.34025574 C56.31121841 64.63912444 52.03463867 77.76774866 42.45214844 88.61352539 C29.97849497 100.3247306 16.61034809 104.79707193 -0.21582031 104.35961914 C-12.45930714 103.59287991 -25.76139929 98.3122037 -34.14550781 89.11352539 C-46.15198184 74.8587348 -49.58958609 60.30660734 -48.14550781 42.11352539 C-47.29007733 37.83172387 -45.97826664 34.06842602 -44.14550781 30.11352539 C-43.79488281 29.32977539 -43.44425781 28.54602539 -43.08300781 27.73852539 C-36.62513896 14.82278769 -26.06732429 6.47206869 -12.62597656 1.87524414 C-8.25507823 0.53299977 -4.60989494 -0.00936971 0 0 Z " fill="#FF433F" transform="translate(48.1455078125,270.886474609375)"/>
</svg>
