<?xml version="1.0" encoding="UTF-8"?>
<svg version="1.1" xmlns="http://www.w3.org/2000/svg" width="800" height="182">
<path d="M0 0 C2.43373961 1.93633298 4.80597446 3.9279291 7.17578125 5.94140625 C8.50144867 6.95154667 9.83225846 7.95513839 11.17578125 8.94140625 C11.66304687 8.45671875 12.1503125 7.97203125 12.65234375 7.47265625 C29.33598144 -8.30096483 48.2570356 -12.80335368 70.59033203 -12.18603516 C84.47583378 -11.50159399 97.95226915 -4.19239042 108.17578125 4.94140625 C108.8615625 5.54597656 109.54734375 6.15054687 110.25390625 6.7734375 C122.40619739 18.16041259 130.010447 34.48339877 131.44371605 51.03568459 C131.53997853 54.17226223 131.54783043 57.29499409 131.51635742 60.43286133 C131.5167955 61.60518814 131.51723358 62.77751495 131.51768494 63.98536682 C131.51561639 67.81073418 131.49237699 71.63564793 131.46875 75.4609375 C131.46314715 78.1327946 131.4587325 80.80462748 131.45588684 83.47648621 C131.44661841 89.75892225 131.42207638 96.04119887 131.39183837 102.32356519 C131.3581308 109.48453004 131.34176754 116.64550311 131.32675207 123.80652773 C131.29552116 138.51823488 131.24286368 153.22981776 131.17578125 167.94140625 C129.11197448 167.66586689 127.04976196 167.37837147 124.98828125 167.0859375 C123.83972656 166.92714111 122.69117188 166.76834473 121.5078125 166.60473633 C111.59347848 164.63102256 105.69171177 157.96121176 99.60546875 150.39453125 C95.87493683 143.99350927 94.73154573 137.49731988 94.79101562 130.18383789 C94.78564285 129.35977951 94.78027008 128.53572113 94.7747345 127.68669128 C94.7650216 125.91403088 94.76199251 124.1413233 94.76509094 122.36863899 C94.7696064 119.55473127 94.75546421 116.74144011 94.73669434 113.92759705 C94.70007823 107.95304316 94.68623085 101.97855577 94.67578125 96.00390625 C94.66366055 89.07825238 94.64194582 82.15290238 94.59577942 75.22738457 C94.58230457 72.46999216 94.58636216 69.71299352 94.59118652 66.95558167 C94.55186226 54.56856894 93.73851719 43.65825008 85.17578125 33.94140625 C77.3965003 27.34342352 69.44323652 24.28098574 59.26171875 24.6015625 C49.7788777 25.64587537 42.35243025 29.6733012 36.17578125 36.94140625 C32.3644664 43.01397968 30.07153632 48.67801709 30.01756287 55.86419678 C30.00777405 56.85415146 29.99798523 57.84410614 29.98789978 58.86405945 C29.98214432 59.94371475 29.97638885 61.02337006 29.97045898 62.13574219 C29.96055939 63.27749405 29.95065979 64.41924591 29.94046021 65.59559631 C29.90885391 69.37230348 29.88409107 73.14902322 29.859375 76.92578125 C29.83880473 79.54323658 29.81780824 82.16068858 29.79640198 84.77813721 C29.74652229 90.96514831 29.70156598 97.15218499 29.65837961 103.33924603 C29.60896682 110.38397509 29.5540637 117.42865801 29.49870002 124.47334242 C29.38495252 138.96265333 29.27809778 153.45201017 29.17578125 167.94140625 C27.09806177 167.64954196 25.02144095 167.34984966 22.9453125 167.046875 C21.21051636 166.79780396 21.21051636 166.79780396 19.44067383 166.54370117 C10.90737492 164.96951076 3.86861715 159.77481425 -1.3671875 152.921875 C-7.12945632 144.08414305 -7.97350235 134.8653096 -7.96606445 124.57275391 C-7.96953888 123.77810226 -7.97301331 122.98345062 -7.97659302 122.16471863 C-7.98389744 120.45313833 -7.98927084 118.74154889 -7.99288368 117.02995682 C-8.00011328 114.31289454 -8.01582635 111.59600626 -8.03422546 108.8789978 C-8.08639904 101.15861353 -8.13465211 93.43833037 -8.15014648 85.71777344 C-8.16027046 80.9815659 -8.18969811 76.2458068 -8.23146629 71.50977707 C-8.24370979 69.71503476 -8.24890982 67.92022899 -8.24666786 66.12544632 C-8.23479527 53.52300058 -8.81561218 43.30627858 -17.90234375 33.6953125 C-25.40921394 26.84453056 -33.51826217 24.3551093 -43.6328125 24.5703125 C-52.14774287 25.56042068 -59.3848264 29.30182467 -65.13671875 35.62890625 C-71.37730045 44.1808145 -72.97910015 52.85012416 -72.95019531 63.23486328 C-72.95206345 64.04551743 -72.95393158 64.85617157 -72.95585632 65.69139099 C-72.95984562 67.44447641 -72.9619338 69.19756698 -72.96231842 70.95065689 C-72.96575738 74.693611 -72.98715196 78.43639502 -73.00754929 82.17928886 C-73.04542392 89.13615062 -73.07684051 96.09282781 -73.07470703 103.04980469 C-73.07391553 107.90048074 -73.09746818 112.75052827 -73.13658905 117.60103989 C-73.14698265 119.43879234 -73.14862257 121.27661792 -73.14093781 123.1143837 C-73.09332636 135.76544908 -73.80809665 147.67485214 -83.0234375 157.4140625 C-89.62191897 163.01060535 -96.91367293 166.57440728 -105.5078125 167.484375 C-106.72102173 167.61428833 -106.72102173 167.61428833 -107.95874023 167.74682617 C-108.57434814 167.8110376 -109.18995605 167.87524902 -109.82421875 167.94140625 C-109.89457312 152.79794673 -109.94733554 137.65449479 -109.97965527 122.51090813 C-109.99506662 115.4780821 -110.01604514 108.44535813 -110.05053711 101.41259766 C-110.0838476 94.61744352 -110.10110464 87.82239516 -110.10885048 81.02716446 C-110.11436604 78.44300805 -110.12513612 75.858857 -110.14140892 73.27474594 C-110.24626836 55.92291871 -110.14942766 40.61936377 -101.82421875 24.94140625 C-101.16099609 23.67876953 -101.16099609 23.67876953 -100.484375 22.390625 C-92.03914046 7.34828203 -78.85439844 -3.00274809 -62.82421875 -9.05859375 C-62.04691406 -9.37699219 -61.26960937 -9.69539062 -60.46875 -10.0234375 C-40.9784995 -16.74741899 -16.36140212 -11.92594594 0 0 Z " fill="#0A5BFF" transform="translate(668.82421875,12.05859375)"/>
<path d="M0 0 C16.48491719 13.14233098 27.44020176 29.76492037 33 50 C33.18473877 50.65355469 33.36947754 51.30710937 33.55981445 51.98046875 C39.39742167 74.79806905 34.86405321 100.01527229 23.14746094 120.15087891 C19.8604599 125.4478461 16.04330883 130.26604306 12 135 C11.43925781 135.66257813 10.87851562 136.32515625 10.30078125 137.0078125 C-3.25867358 151.69437566 -25.49170783 163.17107783 -45.58349609 164.12231445 C-73.78908214 164.88743894 -98.37011473 158.98182473 -119.58984375 139.3359375 C-135.56342955 124.20306674 -146.46078822 101.88932513 -147.23828125 79.76171875 C-147.73727888 52.38684437 -140.35073207 28.86752421 -121.42626953 8.47363281 C-111.716399 -1.55868121 -99.69413539 -8.43811691 -86.75 -13.375 C-86.12520752 -13.61371826 -85.50041504 -13.85243652 -84.85668945 -14.09838867 C-56.42210536 -24.3502631 -23.81783618 -17.78534149 0 0 Z M-100.0078125 39.30859375 C-108.7460918 50.82723465 -111.91604466 64.76738014 -111 79 C-108.67604364 95.36616722 -100.87149794 108.32356196 -87.92578125 118.390625 C-75.18705819 126.85176947 -60.96563233 129.81206697 -45.87890625 127.52734375 C-30.65708886 124.2216955 -18.7377328 115.84630572 -9.53125 103.3828125 C-1.38583836 90.70755458 0.78485307 76.72903448 -1.46484375 61.9453125 C-5.26484689 46.4305068 -14.58775738 33.63316767 -28 25 C-53.13865469 11.12021415 -81.54333602 18.07803811 -100.0078125 39.30859375 Z " fill="#0A5BFF" transform="translate(311,18)"/>
<path d="M0 0 C19.82630946 16.1983313 33.03803353 37.99319527 35.65234375 63.67285156 C37.58925067 88.56441128 30.6641898 112.90449302 14.39453125 132.1328125 C-0.28821911 148.92692771 -20.38366442 161.75478308 -43 164 C-70.87011203 165.65664863 -95.98911376 159.86223771 -117.44604492 141.2722168 C-134.24167349 126.13726797 -145.68213148 104.11181961 -147.16845703 81.42919922 C-148.33663494 53.9452479 -140.88827946 29.94146467 -122.23046875 9.328125 C-90.74892155 -23.97058011 -36.19554881 -27.79472515 0 0 Z M-98 37 C-107.87163907 49.11813899 -112.19739212 63.51115357 -111 79 C-108.92802627 94.40795006 -101.36074154 106.89264589 -89.6953125 116.99609375 C-77.75133159 126.10093165 -63.6827348 128.83901342 -49 128 C-33.33674624 125.71537213 -21.17417436 117.65635985 -11.1875 105.625 C-1.93323252 93.11864324 0.36685965 79.15242457 -1 64 C-4.0282432 48.31861087 -12.84471241 35.96597028 -25.6171875 26.53125 C-49.73532596 11.03238069 -78.6884522 16.88519891 -98 37 Z " fill="#0A5BFF" transform="translate(507,18)"/>
<path d="M0 0 C17.03794577 -0.04680688 34.07587136 -0.08203132 51.11386681 -0.10362434 C59.02564015 -0.1139187 66.93737346 -0.12794367 74.84912109 -0.15087891 C81.74833601 -0.17086932 88.6475219 -0.18372981 95.54676497 -0.18817699 C99.19682575 -0.19077483 102.84680354 -0.19684216 106.49683762 -0.21146011 C110.58044806 -0.22768047 114.663916 -0.22797608 118.74755859 -0.22705078 C119.94590332 -0.23424133 121.14424805 -0.24143188 122.37890625 -0.24884033 C132.85157224 -0.22323342 142.06674934 0.12946869 149.84765625 7.828125 C155.78319479 14.21461821 157.52424077 19.49996456 157.30078125 28.203125 C155.88814307 41.33882547 143.52866799 50.6240092 134.71655273 59.39697266 C133.83741714 60.27625427 132.95828156 61.15553589 132.05250549 62.0614624 C129.67475022 64.43864633 127.29482078 66.813611 124.91383624 69.1875577 C122.41364468 71.68143615 119.91634405 74.17820633 117.41871643 76.6746521 C112.70361968 81.38665874 107.98598306 86.09611372 103.26739508 90.80462396 C97.88923043 96.17155481 92.51395438 101.54137488 87.13890159 106.91142201 C76.09577906 117.9441328 65.04909135 128.97326669 54 140 C55.51644356 140.00546844 55.51644356 140.00546844 57.06352234 140.01104736 C66.63987118 140.04815729 76.2159032 140.10610285 85.79201031 140.18390274 C90.71397325 140.22323574 95.63576107 140.25549325 100.55786133 140.27099609 C105.31730324 140.2862567 110.07626325 140.32086669 114.83548927 140.36830902 C116.6416992 140.38302655 118.44797797 140.39103542 120.25424767 140.39188385 C133.6258484 140.40446926 146.38710459 140.84514211 157.06640625 150.015625 C162.56461898 155.65823523 167.73267896 163.25913222 168.10986328 171.359375 C168.09681152 172.14828125 168.08375977 172.9371875 168.0703125 173.75 C168.06016113 174.54921875 168.05000977 175.3484375 168.03955078 176.171875 C168.02649902 176.77515625 168.01344727 177.3784375 168 178 C149.38017951 178.04677747 130.760371 178.08201698 112.14050388 178.10362434 C103.49444677 178.1139249 94.84842622 178.12796185 86.20239258 178.15087891 C78.66410879 178.17085021 71.1258515 178.18372531 63.587542 178.18817699 C59.59825576 178.19077804 55.60904529 178.19686611 51.6197834 178.21146011 C47.85975323 178.22510319 44.09982957 178.22920913 40.33977699 178.22621536 C38.31257387 178.22702209 36.28538217 178.23774837 34.25820923 178.24884033 C23.19794316 178.22399715 14.78863487 177.11208806 6 170 C0.9213415 164.79111948 -0.29539422 159.27359896 -0.375 152.125 C-0.40335938 150.97257813 -0.43171875 149.82015625 -0.4609375 148.6328125 C0.74894995 139.09725884 6.98859621 133.45388873 13.54199219 127.00390625 C14.51879919 126.02822936 15.49472264 125.05166722 16.46983337 124.07429504 C19.10319639 121.43979034 21.7486562 118.81775113 24.3965559 116.19786835 C27.16774239 113.4517869 29.92751006 110.69427699 32.6885376 107.93798828 C37.91135181 102.72757717 43.14427277 97.52744164 48.38095307 92.33097076 C54.34532653 86.41139814 60.29826613 80.48038334 66.25029898 74.5484066 C78.48757092 62.35287856 90.73903889 50.17171059 103 38 C102.12684647 37.99635437 101.25369293 37.99270874 100.3540802 37.98895264 C92.07271872 37.95088035 83.79174339 37.89381219 75.5106554 37.81609726 C71.25456652 37.77680686 66.99867882 37.74452902 62.74243164 37.72900391 C58.62485652 37.71371446 54.50783522 37.67905599 50.39050865 37.63169098 C48.82992083 37.6170025 47.26925389 37.6089663 45.70859718 37.60811615 C31.94100397 37.59309208 19.21872367 36.11550424 9 26 C3.11915935 19.666787 -0.08356823 13.03004587 -0.02783203 4.33959961 C-0.02381378 3.52744492 -0.01979553 2.71529022 -0.01565552 1.87852478 C-0.0104892 1.2586116 -0.00532288 0.63869843 0 0 Z " fill="#0A5BFF" transform="translate(0,2)"/>
</svg>
