<svg xmlns="http://www.w3.org/2000/svg"
  viewBox="0 0 500 500"
  fill="currentColor"
  aria-label="Rapto"
  role="img">
  <!--
    We removed the outer bounding box (which filled the entire background)
    and started the path directly at the first logo shape point M1185 3785
    (calculated as M0 2500 + relative move m1185 1285).
    Now only the logo icon itself will be colored, and the background remains transparent.
  -->
  <g transform="translate(0,500) scale(0.1,-0.1)">
    <path d="M1185 3785 c85 -49 746 -446 815 -490 36 -23 72 -44 80 -48 8 -4 42
-25 75 -46 33 -22 77 -49 98 -61 20 -11 37 -23 37 -26 0 -2 -9 0 -19 6 -24 12
-34 13 -27 1 4 -5 -11 -5 -34 0 -43 10 -66 3 -90 -25 -7 -9 -21 -16 -32 -16
-11 0 -16 -5 -13 -11 4 -6 1 -9 -6 -8 -8 2 -24 -3 -37 -10 -17 -9 -27 -9 -37
-1 -9 8 -17 7 -28 -5 -9 -8 -21 -15 -27 -15 -6 0 -8 -4 -5 -10 3 -5 1 -10 -4
-10 -6 0 -11 8 -11 18 0 12 -9 18 -30 19 -18 1 -28 -2 -25 -8 4 -5 11 -7 16
-4 5 4 9 1 9 -4 0 -23 2 -24 -260 117 -47 26 -110 60 -141 77 -177 95 -187
103 -253 228 -40 73 -123 285 -142 362 -7 29 -7 29 17 14 13 -9 47 -29 74 -44z
m1426 -266 c417 -1 541 -4 566 -14 17 -8 41 -11 51 -8 11 2 22 1 25 -4 3 -4
-13 -9 -36 -10 -37 -3 -81 -23 -48 -23 24 0 -33 -59 -58 -59 -14 -1 -32 -7
-40 -14 -9 -7 -42 -22 -75 -33 -57 -19 -116 -65 -116 -91 0 -9 -17 -13 -57
-14 -32 -1 -50 -3 -40 -6 9 -2 17 -9 17 -14 0 -5 -67 -9 -157 -9 l-158 0 -74
53 c-40 28 -80 57 -89 62 -18 11 -145 98 -214 147 -26 18 -47 37 -48 41 0 5 4
6 8 3 5 -3 249 -6 543 -7z m-1028 -459 c48 -25 84 -46 78 -48 -5 -2 -20 2 -31
8 -12 6 -24 9 -27 6 -4 -3 8 -11 25 -17 18 -6 32 -15 32 -21 0 -6 -8 -7 -17
-3 -23 8 -24 8 -51 0 -14 -5 -21 -13 -18 -21 7 -17 -59 -20 -70 -3 -5 8 -8 8
-14 0 -4 -7 -11 -2 -18 14 -10 21 -10 25 0 20 7 -4 3 2 -8 13 -21 18 -84 132
-84 151 0 6 26 -5 58 -22 31 -18 97 -52 145 -77z m-23 -131 c0 -5 -5 -7 -12
-3 -8 5 -9 2 -5 -9 3 -9 2 -19 -3 -22 -11 -7 -14 28 -3 38 10 10 23 8 23 -4z"/>
    <path d="M1818 3063 c7 -3 16 -2 19 1 4 3 -2 6 -13 5 -11 0 -14 -3 -6 -6z"/>
    <path d="M3095 3500 c-28 -7 -28 -8 -5 -9 14 0 32 4 40 9 17 11 8 11 -35 0z"/>
    <path d="M3120 3430 c-9 -6 -10 -10 -3 -10 6 0 15 5 18 10 8 12 4 12 -15 0z"/>
    <path d="M2425 3280 c3 -5 8 -10 11 -10 2 0 4 5 4 10 0 6 -5 10 -11 10 -5 0
-7 -4 -4 -10z"/>
    <path d="M1505 2980 c3 -5 8 -10 11 -10 2 0 4 5 4 10 0 6 -5 10 -11 10 -5 0
-7 -4 -4 -10z"/>
  </g>
</svg>
